<svg xmlns="http://www.w3.org/2000/svg" xmlns:xlink="http://www.w3.org/1999/xlink" version="1.1" class="marks" width="493" height="133" viewBox="0 0 493 133"><rect width="493" height="133" fill="white"/><g fill="none" stroke-miterlimit="10" transform="translate(87,36)"><g class="mark-group role-frame root" role="graphics-object" aria-roledescription="group mark container"><g transform="translate(0,0)"><path class="background" aria-hidden="true" d="M0.5,0.5h400v60h-400Z" stroke="#ddd"/><g><g class="mark-group role-axis" aria-hidden="true"><g transform="translate(0.5,60.5)"><path class="background" aria-hidden="true" d="M0,0h0v0h0Z" pointer-events="none"/><g><g class="mark-rule role-axis-grid" pointer-events="none"><line transform="translate(0,0)" x2="0" y2="-60" stroke="#ddd" stroke-width="1" opacity="1"/><line transform="translate(40,0)" x2="0" y2="-60" stroke="#ddd" stroke-width="1" opacity="1"/><line transform="translate(80,0)" x2="0" y2="-60" stroke="#ddd" stroke-width="1" opacity="1"/><line transform="translate(120,0)" x2="0" y2="-60" stroke="#ddd" stroke-width="1" opacity="1"/><line transform="translate(160,0)" x2="0" y2="-60" stroke="#ddd" stroke-width="1" opacity="1"/><line transform="translate(200,0)" x2="0" y2="-60" stroke="#ddd" stroke-width="1" opacity="1"/><line transform="translate(240,0)" x2="0" y2="-60" stroke="#ddd" stroke-width="1" opacity="1"/><line transform="translate(280,0)" x2="0" y2="-60" stroke="#ddd" stroke-width="1" opacity="1"/><line transform="translate(320,0)" x2="0" y2="-60" stroke="#ddd" stroke-width="1" opacity="1"/><line transform="translate(360,0)" x2="0" y2="-60" stroke="#ddd" stroke-width="1" opacity="1"/><line transform="translate(400,0)" x2="0" y2="-60" stroke="#ddd" stroke-width="1" opacity="1"/></g></g><path class="foreground" aria-hidden="true" d="" pointer-events="none" display="none"/></g></g><g class="mark-group role-axis" role="graphics-symbol" aria-roledescription="axis" aria-label="X-axis titled 'Total quality rating (0-100 scale)' for a linear scale with values from 0 to 100"><g transform="translate(0.5,60.5)"><path class="background" aria-hidden="true" d="M0,0h0v0h0Z" pointer-events="none"/><g><g class="mark-rule role-axis-tick" pointer-events="none"><line transform="translate(0,0)" x2="0" y2="5" stroke="#888" stroke-width="1" opacity="1"/><line transform="translate(40,0)" x2="0" y2="5" stroke="#888" stroke-width="1" opacity="1"/><line transform="translate(80,0)" x2="0" y2="5" stroke="#888" stroke-width="1" opacity="1"/><line transform="translate(120,0)" x2="0" y2="5" stroke="#888" stroke-width="1" opacity="1"/><line transform="translate(160,0)" x2="0" y2="5" stroke="#888" stroke-width="1" opacity="1"/><line transform="translate(200,0)" x2="0" y2="5" stroke="#888" stroke-width="1" opacity="1"/><line transform="translate(240,0)" x2="0" y2="5" stroke="#888" stroke-width="1" opacity="1"/><line transform="translate(280,0)" x2="0" y2="5" stroke="#888" stroke-width="1" opacity="1"/><line transform="translate(320,0)" x2="0" y2="5" stroke="#888" stroke-width="1" opacity="1"/><line transform="translate(360,0)" x2="0" y2="5" stroke="#888" stroke-width="1" opacity="1"/><line transform="translate(400,0)" x2="0" y2="5" stroke="#888" stroke-width="1" opacity="1"/></g><g class="mark-text role-axis-label" pointer-events="none"><text text-anchor="start" transform="translate(0,15)" font-family="sans-serif" font-size="10px" fill="#000" opacity="1">0</text><text text-anchor="middle" transform="translate(40,15)" font-family="sans-serif" font-size="10px" fill="#000" opacity="1">10</text><text text-anchor="middle" transform="translate(80,15)" font-family="sans-serif" font-size="10px" fill="#000" opacity="1">20</text><text text-anchor="middle" transform="translate(120,15)" font-family="sans-serif" font-size="10px" fill="#000" opacity="1">30</text><text text-anchor="middle" transform="translate(160,15)" font-family="sans-serif" font-size="10px" fill="#000" opacity="1">40</text><text text-anchor="middle" transform="translate(200,15)" font-family="sans-serif" font-size="10px" fill="#000" opacity="1">50</text><text text-anchor="middle" transform="translate(240,15)" font-family="sans-serif" font-size="10px" fill="#000" opacity="1">60</text><text text-anchor="middle" transform="translate(280,15)" font-family="sans-serif" font-size="10px" fill="#000" opacity="1">70</text><text text-anchor="middle" transform="translate(320,15)" font-family="sans-serif" font-size="10px" fill="#000" opacity="1">80</text><text text-anchor="middle" transform="translate(360,15)" font-family="sans-serif" font-size="10px" fill="#000" opacity="1">90</text><text text-anchor="end" transform="translate(400,15)" font-family="sans-serif" font-size="10px" fill="#000" opacity="1">100</text></g><g class="mark-rule role-axis-domain" pointer-events="none"><line transform="translate(0,0)" x2="400" y2="0" stroke="#888" stroke-width="1" opacity="1"/></g><g class="mark-text role-axis-title" pointer-events="none"><text text-anchor="middle" transform="translate(200,30)" font-family="sans-serif" font-size="11px" font-weight="bold" fill="#000" opacity="1">Total quality rating (0-100 scale)</text></g></g><path class="foreground" aria-hidden="true" d="" pointer-events="none" display="none"/></g></g><g class="mark-group role-axis" role="graphics-symbol" aria-roledescription="axis" aria-label="Y-axis titled 'Colour of coffee beans' for a discrete scale with 3 values: Blue-Green, Bluish-Green, Green"><g transform="translate(0.5,0.5)"><path class="background" aria-hidden="true" d="M0,0h0v0h0Z" pointer-events="none"/><g><g class="mark-rule role-axis-tick" pointer-events="none"><line transform="translate(0,10)" x2="-5" y2="0" stroke="#888" stroke-width="1" opacity="1"/><line transform="translate(0,30)" x2="-5" y2="0" stroke="#888" stroke-width="1" opacity="1"/><line transform="translate(0,50)" x2="-5" y2="0" stroke="#888" stroke-width="1" opacity="1"/></g><g class="mark-text role-axis-label" pointer-events="none"><text text-anchor="end" transform="translate(-7,12.5)" font-family="sans-serif" font-size="10px" fill="#000" opacity="1">Blue-Green</text><text text-anchor="end" transform="translate(-7,32.5)" font-family="sans-serif" font-size="10px" fill="#000" opacity="1">Bluish-Green</text><text text-anchor="end" transform="translate(-7,52.5)" font-family="sans-serif" font-size="10px" fill="#000" opacity="1">Green</text></g><g class="mark-rule role-axis-domain" pointer-events="none"><line transform="translate(0,0)" x2="0" y2="60" stroke="#888" stroke-width="1" opacity="1"/></g><g class="mark-text role-axis-title" pointer-events="none"><text text-anchor="middle" transform="translate(-71,30) rotate(-90) translate(0,-2)" font-family="sans-serif" font-size="11px" font-weight="bold" fill="#000" opacity="1">Colour of coffee beans</text></g></g><path class="foreground" aria-hidden="true" d="" pointer-events="none" display="none"/></g></g><g class="mark-symbol role-mark layer_0_layer_0_layer_0_marks" role="graphics-object" aria-roledescription="symbol mark container"><path aria-label="Total quality rating (0-100 scale): 72.83; Colour of coffee beans: Bluish-Green" role="graphics-symbol" aria-roledescription="point" transform="translate(291.32,30)" d="M2.7386127875258306,0A2.7386127875258306,2.7386127875258306,0,1,1,-2.7386127875258306,0A2.7386127875258306,2.7386127875258306,0,1,1,2.7386127875258306,0" stroke="#4c78a8" stroke-width="2" opacity="0.7"/><path aria-label="Total quality rating (0-100 scale): 69.33; Colour of coffee beans: Green" role="graphics-symbol" aria-roledescription="point" transform="translate(277.32,50)" d="M2.7386127875258306,0A2.7386127875258306,2.7386127875258306,0,1,1,-2.7386127875258306,0A2.7386127875258306,2.7386127875258306,0,1,1,2.7386127875258306,0" stroke="#4c78a8" stroke-width="2" opacity="0.7"/><path aria-label="Total quality rating (0-100 scale): 75.67; Colour of coffee beans: Green" role="graphics-symbol" aria-roledescription="point" transform="translate(302.68,50)" d="M2.7386127875258306,0A2.7386127875258306,2.7386127875258306,0,1,1,-2.7386127875258306,0A2.7386127875258306,2.7386127875258306,0,1,1,2.7386127875258306,0" stroke="#4c78a8" stroke-width="2" opacity="0.7"/><path aria-label="Total quality rating (0-100 scale): 88.25; Colour of coffee beans: Green" role="graphics-symbol" aria-roledescription="point" transform="translate(353,50)" d="M2.7386127875258306,0A2.7386127875258306,2.7386127875258306,0,1,1,-2.7386127875258306,0A2.7386127875258306,2.7386127875258306,0,1,1,2.7386127875258306,0" stroke="#4c78a8" stroke-width="2" opacity="0.7"/><path aria-label="Total quality rating (0-100 scale): 86.33; Colour of coffee beans: Blue-Green" role="graphics-symbol" aria-roledescription="point" transform="translate(345.32,10)" d="M2.7386127875258306,0A2.7386127875258306,2.7386127875258306,0,1,1,-2.7386127875258306,0A2.7386127875258306,2.7386127875258306,0,1,1,2.7386127875258306,0" stroke="#4c78a8" stroke-width="2" opacity="0.7"/><path aria-label="Total quality rating (0-100 scale): 78.33; Colour of coffee beans: Bluish-Green" role="graphics-symbol" aria-roledescription="point" transform="translate(313.32,30)" d="M2.7386127875258306,0A2.7386127875258306,2.7386127875258306,0,1,1,-2.7386127875258306,0A2.7386127875258306,2.7386127875258306,0,1,1,2.7386127875258306,0" stroke="#4c78a8" stroke-width="2" opacity="0.7"/><path aria-label="Total quality rating (0-100 scale): 72.58; Colour of coffee beans: Green" role="graphics-symbol" aria-roledescription="point" transform="translate(290.32,50)" d="M2.7386127875258306,0A2.7386127875258306,2.7386127875258306,0,1,1,-2.7386127875258306,0A2.7386127875258306,2.7386127875258306,0,1,1,2.7386127875258306,0" stroke="#4c78a8" stroke-width="2" opacity="0.7"/><path aria-label="Total quality rating (0-100 scale): 88.83; Colour of coffee beans: Green" role="graphics-symbol" aria-roledescription="point" transform="translate(355.32,50)" d="M2.7386127875258306,0A2.7386127875258306,2.7386127875258306,0,1,1,-2.7386127875258306,0A2.7386127875258306,2.7386127875258306,0,1,1,2.7386127875258306,0" stroke="#4c78a8" stroke-width="2" opacity="0.7"/><path aria-label="Total quality rating (0-100 scale): 76; Colour of coffee beans: Green" role="graphics-symbol" aria-roledescription="point" transform="translate(304,50)" d="M2.7386127875258306,0A2.7386127875258306,2.7386127875258306,0,1,1,-2.7386127875258306,0A2.7386127875258306,2.7386127875258306,0,1,1,2.7386127875258306,0" stroke="#4c78a8" stroke-width="2" opacity="0.7"/><path aria-label="Total quality rating (0-100 scale): 74.33; Colour of coffee beans: Green" role="graphics-symbol" aria-roledescription="point" transform="translate(297.32,50)" d="M2.7386127875258306,0A2.7386127875258306,2.7386127875258306,0,1,1,-2.7386127875258306,0A2.7386127875258306,2.7386127875258306,0,1,1,2.7386127875258306,0" stroke="#4c78a8" stroke-width="2" opacity="0.7"/><path aria-label="Total quality rating (0-100 scale): 75.17; Colour of coffee beans: Bluish-Green" role="graphics-symbol" aria-roledescription="point" transform="translate(300.68,30)" d="M2.7386127875258306,0A2.7386127875258306,2.7386127875258306,0,1,1,-2.7386127875258306,0A2.7386127875258306,2.7386127875258306,0,1,1,2.7386127875258306,0" stroke="#4c78a8" stroke-width="2" opacity="0.7"/><path aria-label="Total quality rating (0-100 scale): 77.83; Colour of coffee beans: Bluish-Green" role="graphics-symbol" aria-roledescription="point" transform="translate(311.32,30)" d="M2.7386127875258306,0A2.7386127875258306,2.7386127875258306,0,1,1,-2.7386127875258306,0A2.7386127875258306,2.7386127875258306,0,1,1,2.7386127875258306,0" stroke="#4c78a8" stroke-width="2" opacity="0.7"/><path aria-label="Total quality rating (0-100 scale): 67.92; Colour of coffee beans: Blue-Green" role="graphics-symbol" aria-roledescription="point" transform="translate(271.68,10)" d="M2.7386127875258306,0A2.7386127875258306,2.7386127875258306,0,1,1,-2.7386127875258306,0A2.7386127875258306,2.7386127875258306,0,1,1,2.7386127875258306,0" stroke="#4c78a8" stroke-width="2" opacity="0.7"/><path aria-label="Total quality rating (0-100 scale): 70.67; Colour of coffee beans: Green" role="graphics-symbol" aria-roledescription="point" transform="translate(282.68,50)" d="M2.7386127875258306,0A2.7386127875258306,2.7386127875258306,0,1,1,-2.7386127875258306,0A2.7386127875258306,2.7386127875258306,0,1,1,2.7386127875258306,0" stroke="#4c78a8" stroke-width="2" opacity="0.7"/><path aria-label="Total quality rating (0-100 scale): 74.67; Colour of coffee beans: Green" role="graphics-symbol" aria-roledescription="point" transform="translate(298.68,50)" d="M2.7386127875258306,0A2.7386127875258306,2.7386127875258306,0,1,1,-2.7386127875258306,0A2.7386127875258306,2.7386127875258306,0,1,1,2.7386127875258306,0" stroke="#4c78a8" stroke-width="2" opacity="0.7"/><path aria-label="Total quality rating (0-100 scale): 75; Colour of coffee beans: Green" role="graphics-symbol" aria-roledescription="point" transform="translate(300,50)" d="M2.7386127875258306,0A2.7386127875258306,2.7386127875258306,0,1,1,-2.7386127875258306,0A2.7386127875258306,2.7386127875258306,0,1,1,2.7386127875258306,0" stroke="#4c78a8" stroke-width="2" opacity="0.7"/><path aria-label="Total quality rating (0-100 scale): 88.75; Colour of coffee beans: Bluish-Green" role="graphics-symbol" aria-roledescription="point" transform="translate(355,30)" d="M2.7386127875258306,0A2.7386127875258306,2.7386127875258306,0,1,1,-2.7386127875258306,0A2.7386127875258306,2.7386127875258306,0,1,1,2.7386127875258306,0" stroke="#4c78a8" stroke-width="2" opacity="0.7"/><path aria-label="Total quality rating (0-100 scale): 74.33; Colour of coffee beans: Green" role="graphics-symbol" aria-roledescription="point" transform="translate(297.32,50)" d="M2.7386127875258306,0A2.7386127875258306,2.7386127875258306,0,1,1,-2.7386127875258306,0A2.7386127875258306,2.7386127875258306,0,1,1,2.7386127875258306,0" stroke="#4c78a8" stroke-width="2" opacity="0.7"/><path aria-label="Total quality rating (0-100 scale): 76.25; Colour of coffee beans: Green" role="graphics-symbol" aria-roledescription="point" transform="translate(305,50)" d="M2.7386127875258306,0A2.7386127875258306,2.7386127875258306,0,1,1,-2.7386127875258306,0A2.7386127875258306,2.7386127875258306,0,1,1,2.7386127875258306,0" stroke="#4c78a8" stroke-width="2" opacity="0.7"/><path aria-label="Total quality rating (0-100 scale): 76.08; Colour of coffee beans: Green" role="graphics-symbol" aria-roledescription="point" transform="translate(304.32,50)" d="M2.7386127875258306,0A2.7386127875258306,2.7386127875258306,0,1,1,-2.7386127875258306,0A2.7386127875258306,2.7386127875258306,0,1,1,2.7386127875258306,0" stroke="#4c78a8" stroke-width="2" opacity="0.7"/><path aria-label="Total quality rating (0-100 scale): 90.58; Colour of coffee beans: Green" role="graphics-symbol" aria-roledescription="point" transform="translate(362.32,50)" d="M2.7386127875258306,0A2.7386127875258306,2.7386127875258306,0,1,1,-2.7386127875258306,0A2.7386127875258306,2.7386127875258306,0,1,1,2.7386127875258306,0" stroke="#4c78a8" stroke-width="2" opacity="0.7"/><path aria-label="Total quality rating (0-100 scale): 87.08; Colour of coffee beans: Bluish-Green" role="graphics-symbol" aria-roledescription="point" transform="translate(348.32,30)" d="M2.7386127875258306,0A2.7386127875258306,2.7386127875258306,0,1,1,-2.7386127875258306,0A2.7386127875258306,2.7386127875258306,0,1,1,2.7386127875258306,0" stroke="#4c78a8" stroke-width="2" opacity="0.7"/><path aria-label="Total quality rating (0-100 scale): 76.42; Colour of coffee beans: Green" role="graphics-symbol" aria-roledescription="point" transform="translate(305.68,50)" d="M2.7386127875258306,0A2.7386127875258306,2.7386127875258306,0,1,1,-2.7386127875258306,0A2.7386127875258306,2.7386127875258306,0,1,1,2.7386127875258306,0" stroke="#4c78a8" stroke-width="2" opacity="0.7"/><path aria-label="Total quality rating (0-100 scale): 76.33; Colour of coffee beans: Green" role="graphics-symbol" aria-roledescription="point" transform="translate(305.32,50)" d="M2.7386127875258306,0A2.7386127875258306,2.7386127875258306,0,1,1,-2.7386127875258306,0A2.7386127875258306,2.7386127875258306,0,1,1,2.7386127875258306,0" stroke="#4c78a8" stroke-width="2" opacity="0.7"/><path aria-label="Total quality rating (0-100 scale): 79.25; Colour of coffee beans: Blue-Green" role="graphics-symbol" aria-roledescription="point" transform="translate(317,10)" d="M2.7386127875258306,0A2.7386127875258306,2.7386127875258306,0,1,1,-2.7386127875258306,0A2.7386127875258306,2.7386127875258306,0,1,1,2.7386127875258306,0" stroke="#4c78a8" stroke-width="2" opacity="0.7"/><path aria-label="Total quality rating (0-100 scale): 69.17; Colour of coffee beans: Green" role="graphics-symbol" aria-roledescription="point" transform="translate(276.68,50)" d="M2.7386127875258306,0A2.7386127875258306,2.7386127875258306,0,1,1,-2.7386127875258306,0A2.7386127875258306,2.7386127875258306,0,1,1,2.7386127875258306,0" stroke="#4c78a8" stroke-width="2" opacity="0.7"/><path aria-label="Total quality rating (0-100 scale): 76.17; Colour of coffee beans: Bluish-Green" role="graphics-symbol" aria-roledescription="point" transform="translate(304.68,30)" d="M2.7386127875258306,0A2.7386127875258306,2.7386127875258306,0,1,1,-2.7386127875258306,0A2.7386127875258306,2.7386127875258306,0,1,1,2.7386127875258306,0" stroke="#4c78a8" stroke-width="2" opacity="0.7"/><path aria-label="Total quality rating (0-100 scale): 71.75; Colour of coffee beans: Green" role="graphics-symbol" aria-roledescription="point" transform="translate(287,50)" d="M2.7386127875258306,0A2.7386127875258306,2.7386127875258306,0,1,1,-2.7386127875258306,0A2.7386127875258306,2.7386127875258306,0,1,1,2.7386127875258306,0" stroke="#4c78a8" stroke-width="2" opacity="0.7"/><path aria-label="Total quality rating (0-100 scale): 89.92; Colour of coffee beans: Green" role="graphics-symbol" aria-roledescription="point" transform="translate(359.68,50)" d="M2.7386127875258306,0A2.7386127875258306,2.7386127875258306,0,1,1,-2.7386127875258306,0A2.7386127875258306,2.7386127875258306,0,1,1,2.7386127875258306,0" stroke="#4c78a8" stroke-width="2" opacity="0.7"/><path aria-label="Total quality rating (0-100 scale): 76.83; Colour of coffee beans: Green" role="graphics-symbol" aria-roledescription="point" transform="translate(307.32,50)" d="M2.7386127875258306,0A2.7386127875258306,2.7386127875258306,0,1,1,-2.7386127875258306,0A2.7386127875258306,2.7386127875258306,0,1,1,2.7386127875258306,0" stroke="#4c78a8" stroke-width="2" opacity="0.7"/><path aria-label="Total quality rating (0-100 scale): 75.5; Colour of coffee beans: Green" role="graphics-symbol" aria-roledescription="point" transform="translate(302,50)" d="M2.7386127875258306,0A2.7386127875258306,2.7386127875258306,0,1,1,-2.7386127875258306,0A2.7386127875258306,2.7386127875258306,0,1,1,2.7386127875258306,0" stroke="#4c78a8" stroke-width="2" opacity="0.7"/><path aria-label="Total quality rating (0-100 scale): 70.75; Colour of coffee beans: Green" role="graphics-symbol" aria-roledescription="point" transform="translate(283,50)" d="M2.7386127875258306,0A2.7386127875258306,2.7386127875258306,0,1,1,-2.7386127875258306,0A2.7386127875258306,2.7386127875258306,0,1,1,2.7386127875258306,0" stroke="#4c78a8" stroke-width="2" opacity="0.7"/><path aria-label="Total quality rating (0-100 scale): 89; Colour of coffee beans: Green" role="graphics-symbol" aria-roledescription="point" transform="translate(356,50)" d="M2.7386127875258306,0A2.7386127875258306,2.7386127875258306,0,1,1,-2.7386127875258306,0A2.7386127875258306,2.7386127875258306,0,1,1,2.7386127875258306,0" stroke="#4c78a8" stroke-width="2" opacity="0.7"/><path aria-label="Total quality rating (0-100 scale): 63.08; Colour of coffee beans: Green" role="graphics-symbol" aria-roledescription="point" transform="translate(252.32000000000002,50)" d="M2.7386127875258306,0A2.7386127875258306,2.7386127875258306,0,1,1,-2.7386127875258306,0A2.7386127875258306,2.7386127875258306,0,1,1,2.7386127875258306,0" stroke="#4c78a8" stroke-width="2" opacity="0.7"/><path aria-label="Total quality rating (0-100 scale): 75.17; Colour of coffee beans: Green" role="graphics-symbol" aria-roledescription="point" transform="translate(300.68,50)" d="M2.7386127875258306,0A2.7386127875258306,2.7386127875258306,0,1,1,-2.7386127875258306,0A2.7386127875258306,2.7386127875258306,0,1,1,2.7386127875258306,0" stroke="#4c78a8" stroke-width="2" opacity="0.7"/></g><g class="mark-rule role-mark layer_0_layer_0_layer_1_layer_0_marks" aria-hidden="true"><line transform="translate(309,50)" x2="14.680000000000007" y2="0" stroke="black"/><line transform="translate(316.32,30)" x2="10.680000000000007" y2="0" stroke="black"/><line transform="translate(318.68,10)" x2="9.639999999999986" y2="0" stroke="black"/></g><g class="mark-rule role-mark layer_0_layer_0_layer_1_layer_1_marks" aria-hidden="true"><line transform="translate(333.76,50)" x2="14.920000000000016" y2="0" stroke="black"/><line transform="translate(334.68,30)" x2="9.639999999999986" y2="0" stroke="black"/><line transform="translate(335,10)" x2="9" y2="0" stroke="black"/></g><g class="mark-rect role-mark layer_0_layer_1_layer_0_marks" role="graphics-object" aria-roledescription="rect mark container"><path aria-label="Total quality rating (0-100 scale): 80.92; upper_box_total_cup_points: 83.44; Colour of coffee beans: Green; Max of Total quality rating (0-100 scale): 90.58; Q3 of Total quality rating (0-100 scale): 83.44; Median of Total quality rating (0-100 scale): 82.33; Q1 of Total quality rating (0-100 scale): 80.92; Min of Total quality rating (0-100 scale): 63.08" role="graphics-symbol" aria-roledescription="box" d="M323.68,43h10.079999999999984v14h-10.079999999999984Z" fill="#4c78a8"/><path aria-label="Total quality rating (0-100 scale): 81.75; upper_box_total_cup_points: 83.67; Colour of coffee beans: Bluish-Green; Max of Total quality rating (0-100 scale): 88.75; Q3 of Total quality rating (0-100 scale): 83.67; Median of Total quality rating (0-100 scale): 82.92; Q1 of Total quality rating (0-100 scale): 81.75; Min of Total quality rating (0-100 scale): 72.83" role="graphics-symbol" aria-roledescription="box" d="M327,23h7.680000000000007v14h-7.680000000000007Z" fill="#4c78a8"/><path aria-label="Total quality rating (0-100 scale): 82.08; upper_box_total_cup_points: 83.75; Colour of coffee beans: Blue-Green; Max of Total quality rating (0-100 scale): 86.33; Q3 of Total quality rating (0-100 scale): 83.75; Median of Total quality rating (0-100 scale): 82.75; Q1 of Total quality rating (0-100 scale): 82.08; Min of Total quality rating (0-100 scale): 67.92" role="graphics-symbol" aria-roledescription="box" d="M328.32,3h6.680000000000007v14h-6.680000000000007Z" fill="#4c78a8"/></g><g class="mark-rect role-mark layer_0_layer_1_layer_1_marks" aria-hidden="true"><path d="M328.82,43h1v14h-1Z" fill="white" opacity="0.7"/><path d="M331.18,23h1v14h-1Z" fill="white" opacity="0.7"/><path d="M330.5,3h1v14h-1Z" fill="white" opacity="0.7"/></g><g class="mark-symbol role-mark layer_1_marks" role="graphics-object" aria-roledescription="symbol mark container"><path aria-label="Mean of total_cup_points: 82.0062797619; Colour of coffee beans: Green" role="graphics-symbol" aria-roledescription="circle" transform="translate(328.02511904761894,50)" d="M1.6583123951777,0A1.6583123951777,1.6583123951777,0,1,1,-1.6583123951777,0A1.6583123951777,1.6583123951777,0,1,1,1.6583123951777,0" fill="black" stroke-width="2"/><path aria-label="Mean of total_cup_points: 82.5331578947; Colour of coffee beans: Bluish-Green" role="graphics-symbol" aria-roledescription="circle" transform="translate(330.13263157894744,30)" d="M1.6583123951777,0A1.6583123951777,1.6583123951777,0,1,1,-1.6583123951777,0A1.6583123951777,1.6583123951777,0,1,1,1.6583123951777,0" fill="black" stroke-width="2"/><path aria-label="Mean of total_cup_points: 82.655942029; Colour of coffee beans: Blue-Green" role="graphics-symbol" aria-roledescription="circle" transform="translate(330.6237681159421,10)" d="M1.6583123951777,0A1.6583123951777,1.6583123951777,0,1,1,-1.6583123951777,0A1.6583123951777,1.6583123951777,0,1,1,1.6583123951777,0" fill="black" stroke-width="2"/></g></g><path class="foreground" aria-hidden="true" d="" display="none"/></g></g></g></svg>