<svg xmlns="http://www.w3.org/2000/svg" xmlns:xlink="http://www.w3.org/1999/xlink" version="1.1" class="marks" width="493" height="170" viewBox="0 0 493 170"><rect width="493" height="170" fill="white"/><g fill="none" stroke-miterlimit="10" transform="translate(87,33)"><g class="mark-group role-frame root" role="graphics-object" aria-roledescription="group mark container"><g transform="translate(0,0)"><path class="background" aria-hidden="true" d="M0.5,0.5h400v100h-400Z" stroke="#ddd"/><g><g class="mark-group role-axis" aria-hidden="true"><g transform="translate(0.5,100.5)"><path class="background" aria-hidden="true" d="M0,0h0v0h0Z" pointer-events="none"/><g><g class="mark-rule role-axis-grid" pointer-events="none"><line transform="translate(0,0)" x2="0" y2="-100" stroke="#ddd" stroke-width="1" opacity="1"/><line transform="translate(40,0)" x2="0" y2="-100" stroke="#ddd" stroke-width="1" opacity="1"/><line transform="translate(80,0)" x2="0" y2="-100" stroke="#ddd" stroke-width="1" opacity="1"/><line transform="translate(120,0)" x2="0" y2="-100" stroke="#ddd" stroke-width="1" opacity="1"/><line transform="translate(160,0)" x2="0" y2="-100" stroke="#ddd" stroke-width="1" opacity="1"/><line transform="translate(200,0)" x2="0" y2="-100" stroke="#ddd" stroke-width="1" opacity="1"/><line transform="translate(240,0)" x2="0" y2="-100" stroke="#ddd" stroke-width="1" opacity="1"/><line transform="translate(280,0)" x2="0" y2="-100" stroke="#ddd" stroke-width="1" opacity="1"/><line transform="translate(320,0)" x2="0" y2="-100" stroke="#ddd" stroke-width="1" opacity="1"/><line transform="translate(360,0)" x2="0" y2="-100" stroke="#ddd" stroke-width="1" opacity="1"/><line transform="translate(400,0)" x2="0" y2="-100" stroke="#ddd" stroke-width="1" opacity="1"/></g></g><path class="foreground" aria-hidden="true" d="" pointer-events="none" display="none"/></g></g><g class="mark-group role-axis" role="graphics-symbol" aria-roledescription="axis" aria-label="X-axis titled 'Total quality rating (0-100 scale)' for a linear scale with values from 0 to 100"><g transform="translate(0.5,100.5)"><path class="background" aria-hidden="true" d="M0,0h0v0h0Z" pointer-events="none"/><g><g class="mark-rule role-axis-tick" pointer-events="none"><line transform="translate(0,0)" x2="0" y2="5" stroke="#888" stroke-width="1" opacity="1"/><line transform="translate(40,0)" x2="0" y2="5" stroke="#888" stroke-width="1" opacity="1"/><line transform="translate(80,0)" x2="0" y2="5" stroke="#888" stroke-width="1" opacity="1"/><line transform="translate(120,0)" x2="0" y2="5" stroke="#888" stroke-width="1" opacity="1"/><line transform="translate(160,0)" x2="0" y2="5" stroke="#888" stroke-width="1" opacity="1"/><line transform="translate(200,0)" x2="0" y2="5" stroke="#888" stroke-width="1" opacity="1"/><line transform="translate(240,0)" x2="0" y2="5" stroke="#888" stroke-width="1" opacity="1"/><line transform="translate(280,0)" x2="0" y2="5" stroke="#888" stroke-width="1" opacity="1"/><line transform="translate(320,0)" x2="0" y2="5" stroke="#888" stroke-width="1" opacity="1"/><line transform="translate(360,0)" x2="0" y2="5" stroke="#888" stroke-width="1" opacity="1"/><line transform="translate(400,0)" x2="0" y2="5" stroke="#888" stroke-width="1" opacity="1"/></g><g class="mark-text role-axis-label" pointer-events="none"><text text-anchor="start" transform="translate(0,15)" font-family="sans-serif" font-size="10px" fill="#000" opacity="1">0</text><text text-anchor="middle" transform="translate(40,15)" font-family="sans-serif" font-size="10px" fill="#000" opacity="1">10</text><text text-anchor="middle" transform="translate(80,15)" font-family="sans-serif" font-size="10px" fill="#000" opacity="1">20</text><text text-anchor="middle" transform="translate(120,15)" font-family="sans-serif" font-size="10px" fill="#000" opacity="1">30</text><text text-anchor="middle" transform="translate(160,15)" font-family="sans-serif" font-size="10px" fill="#000" opacity="1">40</text><text text-anchor="middle" transform="translate(200,15)" font-family="sans-serif" font-size="10px" fill="#000" opacity="1">50</text><text text-anchor="middle" transform="translate(240,15)" font-family="sans-serif" font-size="10px" fill="#000" opacity="1">60</text><text text-anchor="middle" transform="translate(280,15)" font-family="sans-serif" font-size="10px" fill="#000" opacity="1">70</text><text text-anchor="middle" transform="translate(320,15)" font-family="sans-serif" font-size="10px" fill="#000" opacity="1">80</text><text text-anchor="middle" transform="translate(360,15)" font-family="sans-serif" font-size="10px" fill="#000" opacity="1">90</text><text text-anchor="end" transform="translate(400,15)" font-family="sans-serif" font-size="10px" fill="#000" opacity="1">100</text></g><g class="mark-rule role-axis-domain" pointer-events="none"><line transform="translate(0,0)" x2="400" y2="0" stroke="#888" stroke-width="1" opacity="1"/></g><g class="mark-text role-axis-title" pointer-events="none"><text text-anchor="middle" transform="translate(200,30)" font-family="sans-serif" font-size="11px" font-weight="bold" fill="#000" opacity="1">Total quality rating (0-100 scale)</text></g></g><path class="foreground" aria-hidden="true" d="" pointer-events="none" display="none"/></g></g><g class="mark-group role-axis" role="graphics-symbol" aria-roledescription="axis" aria-label="Y-axis titled 'Colour of coffee beans' for a discrete scale with 5 values: null, Blue-Green, Bluish-Green, Green, None"><g transform="translate(0.5,0.5)"><path class="background" aria-hidden="true" d="M0,0h0v0h0Z" pointer-events="none"/><g><g class="mark-rule role-axis-tick" pointer-events="none"><line transform="translate(0,10)" x2="-5" y2="0" stroke="#888" stroke-width="1" opacity="1"/><line transform="translate(0,30)" x2="-5" y2="0" stroke="#888" stroke-width="1" opacity="1"/><line transform="translate(0,50)" x2="-5" y2="0" stroke="#888" stroke-width="1" opacity="1"/><line transform="translate(0,70)" x2="-5" y2="0" stroke="#888" stroke-width="1" opacity="1"/><line transform="translate(0,90)" x2="-5" y2="0" stroke="#888" stroke-width="1" opacity="1"/></g><g class="mark-text role-axis-label" pointer-events="none"><text text-anchor="end" transform="translate(-7,12.5)" font-family="sans-serif" font-size="10px" fill="#000" opacity="1">null</text><text text-anchor="end" transform="translate(-7,32.5)" font-family="sans-serif" font-size="10px" fill="#000" opacity="1">Blue-Green</text><text text-anchor="end" transform="translate(-7,52.5)" font-family="sans-serif" font-size="10px" fill="#000" opacity="1">Bluish-Green</text><text text-anchor="end" transform="translate(-7,72.5)" font-family="sans-serif" font-size="10px" fill="#000" opacity="1">Green</text><text text-anchor="end" transform="translate(-7,92.5)" font-family="sans-serif" font-size="10px" fill="#000" opacity="1">None</text></g><g class="mark-rule role-axis-domain" pointer-events="none"><line transform="translate(0,0)" x2="0" y2="100" stroke="#888" stroke-width="1" opacity="1"/></g><g class="mark-text role-axis-title" pointer-events="none"><text text-anchor="middle" transform="translate(-71,50) rotate(-90) translate(0,-2)" font-family="sans-serif" font-size="11px" font-weight="bold" fill="#000" opacity="1">Colour of coffee beans</text></g></g><path class="foreground" aria-hidden="true" d="" pointer-events="none" display="none"/></g></g><g class="mark-symbol role-mark layer_0_layer_0_layer_0_marks" role="graphics-object" aria-roledescription="symbol mark container"><path aria-label="Total quality rating (0-100 scale): 73.67; Colour of coffee beans: null" role="graphics-symbol" aria-roledescription="point" transform="translate(294.68,10)" d="M2.7386127875258306,0A2.7386127875258306,2.7386127875258306,0,1,1,-2.7386127875258306,0A2.7386127875258306,2.7386127875258306,0,1,1,2.7386127875258306,0" stroke="#4c78a8" stroke-width="2" opacity="0.7"/><path aria-label="Total quality rating (0-100 scale): 77.33; Colour of coffee beans: Green" role="graphics-symbol" aria-roledescription="point" transform="translate(309.32,70)" d="M2.7386127875258306,0A2.7386127875258306,2.7386127875258306,0,1,1,-2.7386127875258306,0A2.7386127875258306,2.7386127875258306,0,1,1,2.7386127875258306,0" stroke="#4c78a8" stroke-width="2" opacity="0.7"/><path aria-label="Total quality rating (0-100 scale): 0; Colour of coffee beans: Green" role="graphics-symbol" aria-roledescription="point" transform="translate(0,70)" d="M2.7386127875258306,0A2.7386127875258306,2.7386127875258306,0,1,1,-2.7386127875258306,0A2.7386127875258306,2.7386127875258306,0,1,1,2.7386127875258306,0" stroke="#4c78a8" stroke-width="2" opacity="0.7"/><path aria-label="Total quality rating (0-100 scale): 75.58; Colour of coffee beans: null" role="graphics-symbol" aria-roledescription="point" transform="translate(302.32,10)" d="M2.7386127875258306,0A2.7386127875258306,2.7386127875258306,0,1,1,-2.7386127875258306,0A2.7386127875258306,2.7386127875258306,0,1,1,2.7386127875258306,0" stroke="#4c78a8" stroke-width="2" opacity="0.7"/><path aria-label="Total quality rating (0-100 scale): 78.33; Colour of coffee beans: Bluish-Green" role="graphics-symbol" aria-roledescription="point" transform="translate(313.32,50)" d="M2.7386127875258306,0A2.7386127875258306,2.7386127875258306,0,1,1,-2.7386127875258306,0A2.7386127875258306,2.7386127875258306,0,1,1,2.7386127875258306,0" stroke="#4c78a8" stroke-width="2" opacity="0.7"/><path aria-label="Total quality rating (0-100 scale): 74.75; Colour of coffee beans: null" role="graphics-symbol" aria-roledescription="point" transform="translate(299,10)" d="M2.7386127875258306,0A2.7386127875258306,2.7386127875258306,0,1,1,-2.7386127875258306,0A2.7386127875258306,2.7386127875258306,0,1,1,2.7386127875258306,0" stroke="#4c78a8" stroke-width="2" opacity="0.7"/><path aria-label="Total quality rating (0-100 scale): 77.17; Colour of coffee beans: Green" role="graphics-symbol" aria-roledescription="point" transform="translate(308.68,70)" d="M2.7386127875258306,0A2.7386127875258306,2.7386127875258306,0,1,1,-2.7386127875258306,0A2.7386127875258306,2.7386127875258306,0,1,1,2.7386127875258306,0" stroke="#4c78a8" stroke-width="2" opacity="0.7"/><path aria-label="Total quality rating (0-100 scale): 74.75; Colour of coffee beans: null" role="graphics-symbol" aria-roledescription="point" transform="translate(299,10)" d="M2.7386127875258306,0A2.7386127875258306,2.7386127875258306,0,1,1,-2.7386127875258306,0A2.7386127875258306,2.7386127875258306,0,1,1,2.7386127875258306,0" stroke="#4c78a8" stroke-width="2" opacity="0.7"/><path aria-label="Total quality rating (0-100 scale): 75; Colour of coffee beans: Green" role="graphics-symbol" aria-roledescription="point" transform="translate(300,70)" d="M2.7386127875258306,0A2.7386127875258306,2.7386127875258306,0,1,1,-2.7386127875258306,0A2.7386127875258306,2.7386127875258306,0,1,1,2.7386127875258306,0" stroke="#4c78a8" stroke-width="2" opacity="0.7"/><path aria-label="Total quality rating (0-100 scale): 67.92; Colour of coffee beans: Blue-Green" role="graphics-symbol" aria-roledescription="point" transform="translate(271.68,30)" d="M2.7386127875258306,0A2.7386127875258306,2.7386127875258306,0,1,1,-2.7386127875258306,0A2.7386127875258306,2.7386127875258306,0,1,1,2.7386127875258306,0" stroke="#4c78a8" stroke-width="2" opacity="0.7"/><path aria-label="Total quality rating (0-100 scale): 77.33; Colour of coffee beans: Green" role="graphics-symbol" aria-roledescription="point" transform="translate(309.32,70)" d="M2.7386127875258306,0A2.7386127875258306,2.7386127875258306,0,1,1,-2.7386127875258306,0A2.7386127875258306,2.7386127875258306,0,1,1,2.7386127875258306,0" stroke="#4c78a8" stroke-width="2" opacity="0.7"/><path aria-label="Total quality rating (0-100 scale): 88.25; Colour of coffee beans: Green" role="graphics-symbol" aria-roledescription="point" transform="translate(353,70)" d="M2.7386127875258306,0A2.7386127875258306,2.7386127875258306,0,1,1,-2.7386127875258306,0A2.7386127875258306,2.7386127875258306,0,1,1,2.7386127875258306,0" stroke="#4c78a8" stroke-width="2" opacity="0.7"/><path aria-label="Total quality rating (0-100 scale): 88.67; Colour of coffee beans: null" role="graphics-symbol" aria-roledescription="point" transform="translate(354.68,10)" d="M2.7386127875258306,0A2.7386127875258306,2.7386127875258306,0,1,1,-2.7386127875258306,0A2.7386127875258306,2.7386127875258306,0,1,1,2.7386127875258306,0" stroke="#4c78a8" stroke-width="2" opacity="0.7"/><path aria-label="Total quality rating (0-100 scale): 76.08; Colour of coffee beans: Green" role="graphics-symbol" aria-roledescription="point" transform="translate(304.32,70)" d="M2.7386127875258306,0A2.7386127875258306,2.7386127875258306,0,1,1,-2.7386127875258306,0A2.7386127875258306,2.7386127875258306,0,1,1,2.7386127875258306,0" stroke="#4c78a8" stroke-width="2" opacity="0.7"/><path aria-label="Total quality rating (0-100 scale): 74.67; Colour of coffee beans: Green" role="graphics-symbol" aria-roledescription="point" transform="translate(298.68,70)" d="M2.7386127875258306,0A2.7386127875258306,2.7386127875258306,0,1,1,-2.7386127875258306,0A2.7386127875258306,2.7386127875258306,0,1,1,2.7386127875258306,0" stroke="#4c78a8" stroke-width="2" opacity="0.7"/><path aria-label="Total quality rating (0-100 scale): 72.33; Colour of coffee beans: null" role="graphics-symbol" aria-roledescription="point" transform="translate(289.32,10)" d="M2.7386127875258306,0A2.7386127875258306,2.7386127875258306,0,1,1,-2.7386127875258306,0A2.7386127875258306,2.7386127875258306,0,1,1,2.7386127875258306,0" stroke="#4c78a8" stroke-width="2" opacity="0.7"/><path aria-label="Total quality rating (0-100 scale): 87.17; Colour of coffee beans: Green" role="graphics-symbol" aria-roledescription="point" transform="translate(348.68,70)" d="M2.7386127875258306,0A2.7386127875258306,2.7386127875258306,0,1,1,-2.7386127875258306,0A2.7386127875258306,2.7386127875258306,0,1,1,2.7386127875258306,0" stroke="#4c78a8" stroke-width="2" opacity="0.7"/><path aria-label="Total quality rating (0-100 scale): 69.17; Colour of coffee beans: Green" role="graphics-symbol" aria-roledescription="point" transform="translate(276.68,70)" d="M2.7386127875258306,0A2.7386127875258306,2.7386127875258306,0,1,1,-2.7386127875258306,0A2.7386127875258306,2.7386127875258306,0,1,1,2.7386127875258306,0" stroke="#4c78a8" stroke-width="2" opacity="0.7"/><path aria-label="Total quality rating (0-100 scale): 75.58; Colour of coffee beans: Green" role="graphics-symbol" aria-roledescription="point" transform="translate(302.32,70)" d="M2.7386127875258306,0A2.7386127875258306,2.7386127875258306,0,1,1,-2.7386127875258306,0A2.7386127875258306,2.7386127875258306,0,1,1,2.7386127875258306,0" stroke="#4c78a8" stroke-width="2" opacity="0.7"/><path aria-label="Total quality rating (0-100 scale): 75.5; Colour of coffee beans: Green" role="graphics-symbol" aria-roledescription="point" transform="translate(302,70)" d="M2.7386127875258306,0A2.7386127875258306,2.7386127875258306,0,1,1,-2.7386127875258306,0A2.7386127875258306,2.7386127875258306,0,1,1,2.7386127875258306,0" stroke="#4c78a8" stroke-width="2" opacity="0.7"/><path aria-label="Total quality rating (0-100 scale): 88.83; Colour of coffee beans: Green" role="graphics-symbol" aria-roledescription="point" transform="translate(355.32,70)" d="M2.7386127875258306,0A2.7386127875258306,2.7386127875258306,0,1,1,-2.7386127875258306,0A2.7386127875258306,2.7386127875258306,0,1,1,2.7386127875258306,0" stroke="#4c78a8" stroke-width="2" opacity="0.7"/><path aria-label="Total quality rating (0-100 scale): 73.5; Colour of coffee beans: Green" role="graphics-symbol" aria-roledescription="point" transform="translate(294,70)" d="M2.7386127875258306,0A2.7386127875258306,2.7386127875258306,0,1,1,-2.7386127875258306,0A2.7386127875258306,2.7386127875258306,0,1,1,2.7386127875258306,0" stroke="#4c78a8" stroke-width="2" opacity="0.7"/><path aria-label="Total quality rating (0-100 scale): 71.08; Colour of coffee beans: Green" role="graphics-symbol" aria-roledescription="point" transform="translate(284.32,70)" d="M2.7386127875258306,0A2.7386127875258306,2.7386127875258306,0,1,1,-2.7386127875258306,0A2.7386127875258306,2.7386127875258306,0,1,1,2.7386127875258306,0" stroke="#4c78a8" stroke-width="2" opacity="0.7"/><path aria-label="Total quality rating (0-100 scale): 70.75; Colour of coffee beans: Green" role="graphics-symbol" aria-roledescription="point" transform="translate(283,70)" d="M2.7386127875258306,0A2.7386127875258306,2.7386127875258306,0,1,1,-2.7386127875258306,0A2.7386127875258306,2.7386127875258306,0,1,1,2.7386127875258306,0" stroke="#4c78a8" stroke-width="2" opacity="0.7"/><path aria-label="Total quality rating (0-100 scale): 76; Colour of coffee beans: Green" role="graphics-symbol" aria-roledescription="point" transform="translate(304,70)" d="M2.7386127875258306,0A2.7386127875258306,2.7386127875258306,0,1,1,-2.7386127875258306,0A2.7386127875258306,2.7386127875258306,0,1,1,2.7386127875258306,0" stroke="#4c78a8" stroke-width="2" opacity="0.7"/><path aria-label="Total quality rating (0-100 scale): 74.33; Colour of coffee beans: Green" role="graphics-symbol" aria-roledescription="point" transform="translate(297.32,70)" d="M2.7386127875258306,0A2.7386127875258306,2.7386127875258306,0,1,1,-2.7386127875258306,0A2.7386127875258306,2.7386127875258306,0,1,1,2.7386127875258306,0" stroke="#4c78a8" stroke-width="2" opacity="0.7"/><path aria-label="Total quality rating (0-100 scale): 74.83; Colour of coffee beans: Green" role="graphics-symbol" aria-roledescription="point" transform="translate(299.32,70)" d="M2.7386127875258306,0A2.7386127875258306,2.7386127875258306,0,1,1,-2.7386127875258306,0A2.7386127875258306,2.7386127875258306,0,1,1,2.7386127875258306,0" stroke="#4c78a8" stroke-width="2" opacity="0.7"/><path aria-label="Total quality rating (0-100 scale): 78.08; Colour of coffee beans: Blue-Green" role="graphics-symbol" aria-roledescription="point" transform="translate(312.32,30)" d="M2.7386127875258306,0A2.7386127875258306,2.7386127875258306,0,1,1,-2.7386127875258306,0A2.7386127875258306,2.7386127875258306,0,1,1,2.7386127875258306,0" stroke="#4c78a8" stroke-width="2" opacity="0.7"/><path aria-label="Total quality rating (0-100 scale): 76.25; Colour of coffee beans: Green" role="graphics-symbol" aria-roledescription="point" transform="translate(305,70)" d="M2.7386127875258306,0A2.7386127875258306,2.7386127875258306,0,1,1,-2.7386127875258306,0A2.7386127875258306,2.7386127875258306,0,1,1,2.7386127875258306,0" stroke="#4c78a8" stroke-width="2" opacity="0.7"/><path aria-label="Total quality rating (0-100 scale): 73.75; Colour of coffee beans: None" role="graphics-symbol" aria-roledescription="point" transform="translate(295,90)" d="M2.7386127875258306,0A2.7386127875258306,2.7386127875258306,0,1,1,-2.7386127875258306,0A2.7386127875258306,2.7386127875258306,0,1,1,2.7386127875258306,0" stroke="#4c78a8" stroke-width="2" opacity="0.7"/><path aria-label="Total quality rating (0-100 scale): 63.08; Colour of coffee beans: Green" role="graphics-symbol" aria-roledescription="point" transform="translate(252.32000000000002,70)" d="M2.7386127875258306,0A2.7386127875258306,2.7386127875258306,0,1,1,-2.7386127875258306,0A2.7386127875258306,2.7386127875258306,0,1,1,2.7386127875258306,0" stroke="#4c78a8" stroke-width="2" opacity="0.7"/><path aria-label="Total quality rating (0-100 scale): 87.17; Colour of coffee beans: Green" role="graphics-symbol" aria-roledescription="point" transform="translate(348.68,70)" d="M2.7386127875258306,0A2.7386127875258306,2.7386127875258306,0,1,1,-2.7386127875258306,0A2.7386127875258306,2.7386127875258306,0,1,1,2.7386127875258306,0" stroke="#4c78a8" stroke-width="2" opacity="0.7"/><path aria-label="Total quality rating (0-100 scale): 88.75; Colour of coffee beans: Bluish-Green" role="graphics-symbol" aria-roledescription="point" transform="translate(355,50)" d="M2.7386127875258306,0A2.7386127875258306,2.7386127875258306,0,1,1,-2.7386127875258306,0A2.7386127875258306,2.7386127875258306,0,1,1,2.7386127875258306,0" stroke="#4c78a8" stroke-width="2" opacity="0.7"/><path aria-label="Total quality rating (0-100 scale): 77; Colour of coffee beans: Green" role="graphics-symbol" aria-roledescription="point" transform="translate(308,70)" d="M2.7386127875258306,0A2.7386127875258306,2.7386127875258306,0,1,1,-2.7386127875258306,0A2.7386127875258306,2.7386127875258306,0,1,1,2.7386127875258306,0" stroke="#4c78a8" stroke-width="2" opacity="0.7"/><path aria-label="Total quality rating (0-100 scale): 71.75; Colour of coffee beans: Green" role="graphics-symbol" aria-roledescription="point" transform="translate(287,70)" d="M2.7386127875258306,0A2.7386127875258306,2.7386127875258306,0,1,1,-2.7386127875258306,0A2.7386127875258306,2.7386127875258306,0,1,1,2.7386127875258306,0" stroke="#4c78a8" stroke-width="2" opacity="0.7"/><path aria-label="Total quality rating (0-100 scale): 75.17; Colour of coffee beans: null" role="graphics-symbol" aria-roledescription="point" transform="translate(300.68,10)" d="M2.7386127875258306,0A2.7386127875258306,2.7386127875258306,0,1,1,-2.7386127875258306,0A2.7386127875258306,2.7386127875258306,0,1,1,2.7386127875258306,0" stroke="#4c78a8" stroke-width="2" opacity="0.7"/><path aria-label="Total quality rating (0-100 scale): 90.58; Colour of coffee beans: Green" role="graphics-symbol" aria-roledescription="point" transform="translate(362.32,70)" d="M2.7386127875258306,0A2.7386127875258306,2.7386127875258306,0,1,1,-2.7386127875258306,0A2.7386127875258306,2.7386127875258306,0,1,1,2.7386127875258306,0" stroke="#4c78a8" stroke-width="2" opacity="0.7"/><path aria-label="Total quality rating (0-100 scale): 87.08; Colour of coffee beans: Bluish-Green" role="graphics-symbol" aria-roledescription="point" transform="translate(348.32,50)" d="M2.7386127875258306,0A2.7386127875258306,2.7386127875258306,0,1,1,-2.7386127875258306,0A2.7386127875258306,2.7386127875258306,0,1,1,2.7386127875258306,0" stroke="#4c78a8" stroke-width="2" opacity="0.7"/><path aria-label="Total quality rating (0-100 scale): 73.83; Colour of coffee beans: Green" role="graphics-symbol" aria-roledescription="point" transform="translate(295.32,70)" d="M2.7386127875258306,0A2.7386127875258306,2.7386127875258306,0,1,1,-2.7386127875258306,0A2.7386127875258306,2.7386127875258306,0,1,1,2.7386127875258306,0" stroke="#4c78a8" stroke-width="2" opacity="0.7"/><path aria-label="Total quality rating (0-100 scale): 73.42; Colour of coffee beans: Green" role="graphics-symbol" aria-roledescription="point" transform="translate(293.68,70)" d="M2.7386127875258306,0A2.7386127875258306,2.7386127875258306,0,1,1,-2.7386127875258306,0A2.7386127875258306,2.7386127875258306,0,1,1,2.7386127875258306,0" stroke="#4c78a8" stroke-width="2" opacity="0.7"/><path aria-label="Total quality rating (0-100 scale): 77.67; Colour of coffee beans: Bluish-Green" role="graphics-symbol" aria-roledescription="point" transform="translate(310.68,50)" d="M2.7386127875258306,0A2.7386127875258306,2.7386127875258306,0,1,1,-2.7386127875258306,0A2.7386127875258306,2.7386127875258306,0,1,1,2.7386127875258306,0" stroke="#4c78a8" stroke-width="2" opacity="0.7"/><path aria-label="Total quality rating (0-100 scale): 76.17; Colour of coffee beans: Bluish-Green" role="graphics-symbol" aria-roledescription="point" transform="translate(304.68,50)" d="M2.7386127875258306,0A2.7386127875258306,2.7386127875258306,0,1,1,-2.7386127875258306,0A2.7386127875258306,2.7386127875258306,0,1,1,2.7386127875258306,0" stroke="#4c78a8" stroke-width="2" opacity="0.7"/><path aria-label="Total quality rating (0-100 scale): 76.83; Colour of coffee beans: Green" role="graphics-symbol" aria-roledescription="point" transform="translate(307.32,70)" d="M2.7386127875258306,0A2.7386127875258306,2.7386127875258306,0,1,1,-2.7386127875258306,0A2.7386127875258306,2.7386127875258306,0,1,1,2.7386127875258306,0" stroke="#4c78a8" stroke-width="2" opacity="0.7"/><path aria-label="Total quality rating (0-100 scale): 75.17; Colour of coffee beans: Bluish-Green" role="graphics-symbol" aria-roledescription="point" transform="translate(300.68,50)" d="M2.7386127875258306,0A2.7386127875258306,2.7386127875258306,0,1,1,-2.7386127875258306,0A2.7386127875258306,2.7386127875258306,0,1,1,2.7386127875258306,0" stroke="#4c78a8" stroke-width="2" opacity="0.7"/><path aria-label="Total quality rating (0-100 scale): 77.25; Colour of coffee beans: null" role="graphics-symbol" aria-roledescription="point" transform="translate(309,10)" d="M2.7386127875258306,0A2.7386127875258306,2.7386127875258306,0,1,1,-2.7386127875258306,0A2.7386127875258306,2.7386127875258306,0,1,1,2.7386127875258306,0" stroke="#4c78a8" stroke-width="2" opacity="0.7"/><path aria-label="Total quality rating (0-100 scale): 87.25; Colour of coffee beans: None" role="graphics-symbol" aria-roledescription="point" transform="translate(349,90)" d="M2.7386127875258306,0A2.7386127875258306,2.7386127875258306,0,1,1,-2.7386127875258306,0A2.7386127875258306,2.7386127875258306,0,1,1,2.7386127875258306,0" stroke="#4c78a8" stroke-width="2" opacity="0.7"/><path aria-label="Total quality rating (0-100 scale): 69.33; Colour of coffee beans: Green" role="graphics-symbol" aria-roledescription="point" transform="translate(277.32,70)" d="M2.7386127875258306,0A2.7386127875258306,2.7386127875258306,0,1,1,-2.7386127875258306,0A2.7386127875258306,2.7386127875258306,0,1,1,2.7386127875258306,0" stroke="#4c78a8" stroke-width="2" opacity="0.7"/><path aria-label="Total quality rating (0-100 scale): 72.92; Colour of coffee beans: null" role="graphics-symbol" aria-roledescription="point" transform="translate(291.68,10)" d="M2.7386127875258306,0A2.7386127875258306,2.7386127875258306,0,1,1,-2.7386127875258306,0A2.7386127875258306,2.7386127875258306,0,1,1,2.7386127875258306,0" stroke="#4c78a8" stroke-width="2" opacity="0.7"/><path aria-label="Total quality rating (0-100 scale): 75.83; Colour of coffee beans: Green" role="graphics-symbol" aria-roledescription="point" transform="translate(303.32,70)" d="M2.7386127875258306,0A2.7386127875258306,2.7386127875258306,0,1,1,-2.7386127875258306,0A2.7386127875258306,2.7386127875258306,0,1,1,2.7386127875258306,0" stroke="#4c78a8" stroke-width="2" opacity="0.7"/><path aria-label="Total quality rating (0-100 scale): 89.92; Colour of coffee beans: Green" role="graphics-symbol" aria-roledescription="point" transform="translate(359.68,70)" d="M2.7386127875258306,0A2.7386127875258306,2.7386127875258306,0,1,1,-2.7386127875258306,0A2.7386127875258306,2.7386127875258306,0,1,1,2.7386127875258306,0" stroke="#4c78a8" stroke-width="2" opacity="0.7"/><path aria-label="Total quality rating (0-100 scale): 74.42; Colour of coffee beans: Blue-Green" role="graphics-symbol" aria-roledescription="point" transform="translate(297.68,30)" d="M2.7386127875258306,0A2.7386127875258306,2.7386127875258306,0,1,1,-2.7386127875258306,0A2.7386127875258306,2.7386127875258306,0,1,1,2.7386127875258306,0" stroke="#4c78a8" stroke-width="2" opacity="0.7"/><path aria-label="Total quality rating (0-100 scale): 69.17; Colour of coffee beans: Green" role="graphics-symbol" aria-roledescription="point" transform="translate(276.68,70)" d="M2.7386127875258306,0A2.7386127875258306,2.7386127875258306,0,1,1,-2.7386127875258306,0A2.7386127875258306,2.7386127875258306,0,1,1,2.7386127875258306,0" stroke="#4c78a8" stroke-width="2" opacity="0.7"/><path aria-label="Total quality rating (0-100 scale): 76.75; Colour of coffee beans: null" role="graphics-symbol" aria-roledescription="point" transform="translate(307,10)" d="M2.7386127875258306,0A2.7386127875258306,2.7386127875258306,0,1,1,-2.7386127875258306,0A2.7386127875258306,2.7386127875258306,0,1,1,2.7386127875258306,0" stroke="#4c78a8" stroke-width="2" opacity="0.7"/><path aria-label="Total quality rating (0-100 scale): 68.33; Colour of coffee beans: None" role="graphics-symbol" aria-roledescription="point" transform="translate(273.32,90)" d="M2.7386127875258306,0A2.7386127875258306,2.7386127875258306,0,1,1,-2.7386127875258306,0A2.7386127875258306,2.7386127875258306,0,1,1,2.7386127875258306,0" stroke="#4c78a8" stroke-width="2" opacity="0.7"/><path aria-label="Total quality rating (0-100 scale): 75.67; Colour of coffee beans: Green" role="graphics-symbol" aria-roledescription="point" transform="translate(302.68,70)" d="M2.7386127875258306,0A2.7386127875258306,2.7386127875258306,0,1,1,-2.7386127875258306,0A2.7386127875258306,2.7386127875258306,0,1,1,2.7386127875258306,0" stroke="#4c78a8" stroke-width="2" opacity="0.7"/><path aria-label="Total quality rating (0-100 scale): 74; Colour of coffee beans: None" role="graphics-symbol" aria-roledescription="point" transform="translate(296,90)" d="M2.7386127875258306,0A2.7386127875258306,2.7386127875258306,0,1,1,-2.7386127875258306,0A2.7386127875258306,2.7386127875258306,0,1,1,2.7386127875258306,0" stroke="#4c78a8" stroke-width="2" opacity="0.7"/><path aria-label="Total quality rating (0-100 scale): 77.83; Colour of coffee beans: Bluish-Green" role="graphics-symbol" aria-roledescription="point" transform="translate(311.32,50)" d="M2.7386127875258306,0A2.7386127875258306,2.7386127875258306,0,1,1,-2.7386127875258306,0A2.7386127875258306,2.7386127875258306,0,1,1,2.7386127875258306,0" stroke="#4c78a8" stroke-width="2" opacity="0.7"/><path aria-label="Total quality rating (0-100 scale): 89; Colour of coffee beans: Green" role="graphics-symbol" aria-roledescription="point" transform="translate(356,70)" d="M2.7386127875258306,0A2.7386127875258306,2.7386127875258306,0,1,1,-2.7386127875258306,0A2.7386127875258306,2.7386127875258306,0,1,1,2.7386127875258306,0" stroke="#4c78a8" stroke-width="2" opacity="0.7"/><path aria-label="Total quality rating (0-100 scale): 59.83; Colour of coffee beans: Green" role="graphics-symbol" aria-roledescription="point" transform="translate(239.31999999999996,70)" d="M2.7386127875258306,0A2.7386127875258306,2.7386127875258306,0,1,1,-2.7386127875258306,0A2.7386127875258306,2.7386127875258306,0,1,1,2.7386127875258306,0" stroke="#4c78a8" stroke-width="2" opacity="0.7"/><path aria-label="Total quality rating (0-100 scale): 72.83; Colour of coffee beans: Bluish-Green" role="graphics-symbol" aria-roledescription="point" transform="translate(291.32,50)" d="M2.7386127875258306,0A2.7386127875258306,2.7386127875258306,0,1,1,-2.7386127875258306,0A2.7386127875258306,2.7386127875258306,0,1,1,2.7386127875258306,0" stroke="#4c78a8" stroke-width="2" opacity="0.7"/><path aria-label="Total quality rating (0-100 scale): 77.17; Colour of coffee beans: null" role="graphics-symbol" aria-roledescription="point" transform="translate(308.68,10)" d="M2.7386127875258306,0A2.7386127875258306,2.7386127875258306,0,1,1,-2.7386127875258306,0A2.7386127875258306,2.7386127875258306,0,1,1,2.7386127875258306,0" stroke="#4c78a8" stroke-width="2" opacity="0.7"/><path aria-label="Total quality rating (0-100 scale): 89.75; Colour of coffee beans: null" role="graphics-symbol" aria-roledescription="point" transform="translate(359,10)" d="M2.7386127875258306,0A2.7386127875258306,2.7386127875258306,0,1,1,-2.7386127875258306,0A2.7386127875258306,2.7386127875258306,0,1,1,2.7386127875258306,0" stroke="#4c78a8" stroke-width="2" opacity="0.7"/><path aria-label="Total quality rating (0-100 scale): 75.17; Colour of coffee beans: Green" role="graphics-symbol" aria-roledescription="point" transform="translate(300.68,70)" d="M2.7386127875258306,0A2.7386127875258306,2.7386127875258306,0,1,1,-2.7386127875258306,0A2.7386127875258306,2.7386127875258306,0,1,1,2.7386127875258306,0" stroke="#4c78a8" stroke-width="2" opacity="0.7"/></g><g class="mark-rule role-mark layer_0_layer_0_layer_1_layer_0_marks" aria-hidden="true"><line transform="translate(315,30)" x2="12.009999999999991" y2="0" stroke="black"/><line transform="translate(309.68,70)" x2="14.319999999999993" y2="0" stroke="black"/><line transform="translate(317.32,50)" x2="9.680000000000007" y2="0" stroke="black"/><line transform="translate(311.32,10)" x2="15.680000000000007" y2="0" stroke="black"/><line transform="translate(304.68,90)" x2="11.160000000000025" y2="0" stroke="black"/></g><g class="mark-rule role-mark layer_0_layer_0_layer_1_layer_1_marks" aria-hidden="true"><line transform="translate(335.07,30)" x2="8.930000000000007" y2="0" stroke="black"/><line transform="translate(333.68,70)" x2="14" y2="0" stroke="black"/><line transform="translate(334.84000000000003,50)" x2="9.479999999999961" y2="0" stroke="black"/><line transform="translate(337.84000000000003,10)" x2="15.839999999999975" y2="0" stroke="black"/><line transform="translate(328.92,90)" x2="14.079999999999984" y2="0" stroke="black"/></g><g class="mark-rect role-mark layer_0_layer_1_layer_0_marks" role="graphics-object" aria-roledescription="rect mark container"><path aria-label="Total quality rating (0-100 scale): 81.7525; upper_box_total_cup_points: 83.7675; Colour of coffee beans: Blue-Green; Max of Total quality rating (0-100 scale): 86; Q3 of Total quality rating (0-100 scale): 83.7675; Median of Total quality rating (0-100 scale): 82.75; Q1 of Total quality rating (0-100 scale): 81.7525; Min of Total quality rating (0-100 scale): 67.92" role="graphics-symbol" aria-roledescription="box" d="M327.01,23h8.060000000000002v14h-8.060000000000002Z" fill="#4c78a8"/><path aria-label="Total quality rating (0-100 scale): 81; upper_box_total_cup_points: 83.42; Colour of coffee beans: Green; Max of Total quality rating (0-100 scale): 90.58; Q3 of Total quality rating (0-100 scale): 83.42; Median of Total quality rating (0-100 scale): 82.33; Q1 of Total quality rating (0-100 scale): 81; Min of Total quality rating (0-100 scale): 0" role="graphics-symbol" aria-roledescription="box" d="M324,63h9.680000000000007v14h-9.680000000000007Z" fill="#4c78a8"/><path aria-label="Total quality rating (0-100 scale): 81.75; upper_box_total_cup_points: 83.71; Colour of coffee beans: Bluish-Green; Max of Total quality rating (0-100 scale): 88.75; Q3 of Total quality rating (0-100 scale): 83.71; Median of Total quality rating (0-100 scale): 82.83; Q1 of Total quality rating (0-100 scale): 81.75; Min of Total quality rating (0-100 scale): 72.83" role="graphics-symbol" aria-roledescription="box" d="M327,43h7.840000000000032v14h-7.840000000000032Z" fill="#4c78a8"/><path aria-label="Total quality rating (0-100 scale): 81.75; upper_box_total_cup_points: 84.46; Colour of coffee beans: null; Max of Total quality rating (0-100 scale): 89.75; Q3 of Total quality rating (0-100 scale): 84.46; Median of Total quality rating (0-100 scale): 83.08; Q1 of Total quality rating (0-100 scale): 81.75; Min of Total quality rating (0-100 scale): 72.33" role="graphics-symbol" aria-roledescription="box" d="M327,3h10.840000000000032v14h-10.840000000000032Z" fill="#4c78a8"/><path aria-label="Total quality rating (0-100 scale): 78.96; upper_box_total_cup_points: 82.23; Colour of coffee beans: None; Max of Total quality rating (0-100 scale): 87.25; Q3 of Total quality rating (0-100 scale): 82.23; Median of Total quality rating (0-100 scale): 80.71; Q1 of Total quality rating (0-100 scale): 78.96; Min of Total quality rating (0-100 scale): 68.33" role="graphics-symbol" aria-roledescription="box" d="M315.84000000000003,83h13.079999999999984v14h-13.079999999999984Z" fill="#4c78a8"/></g><g class="mark-rect role-mark layer_0_layer_1_layer_1_marks" aria-hidden="true"><path d="M330.5,23h1v14h-1Z" fill="white" opacity="0.7"/><path d="M328.82,63h1v14h-1Z" fill="white" opacity="0.7"/><path d="M330.82,43h1v14h-1Z" fill="white" opacity="0.7"/><path d="M331.82,3h1v14h-1Z" fill="white" opacity="0.7"/><path d="M322.34000000000003,83h1v14h-1Z" fill="white" opacity="0.7"/></g><g class="mark-symbol role-mark layer_1_marks" role="graphics-object" aria-roledescription="symbol mark container"><path aria-label="Mean of total_cup_points: 82.4288571429; Colour of coffee beans: Blue-Green" role="graphics-symbol" aria-roledescription="circle" transform="translate(329.7154285714286,30)" d="M1.6583123951777,0A1.6583123951777,1.6583123951777,0,1,1,-1.6583123951777,0A1.6583123951777,1.6583123951777,0,1,1,1.6583123951777,0" fill="black" stroke-width="2"/><path aria-label="Mean of total_cup_points: 81.8430890805; Colour of coffee beans: Green" role="graphics-symbol" aria-roledescription="circle" transform="translate(327.3723563218389,70)" d="M1.6583123951777,0A1.6583123951777,1.6583123951777,0,1,1,-1.6583123951777,0A1.6583123951777,1.6583123951777,0,1,1,1.6583123951777,0" fill="black" stroke-width="2"/><path aria-label="Mean of total_cup_points: 82.4973626374; Colour of coffee beans: Bluish-Green" role="graphics-symbol" aria-roledescription="circle" transform="translate(329.98945054945045,50)" d="M1.6583123951777,0A1.6583123951777,1.6583123951777,0,1,1,-1.6583123951777,0A1.6583123951777,1.6583123951777,0,1,1,1.6583123951777,0" fill="black" stroke-width="2"/><path aria-label="Mean of total_cup_points: 82.8509142857; Colour of coffee beans: null" role="graphics-symbol" aria-roledescription="circle" transform="translate(331.4036571428572,10)" d="M1.6583123951777,0A1.6583123951777,1.6583123951777,0,1,1,-1.6583123951777,0A1.6583123951777,1.6583123951777,0,1,1,1.6583123951777,0" fill="black" stroke-width="2"/><path aria-label="Mean of total_cup_points: 80.3273684211; Colour of coffee beans: None" role="graphics-symbol" aria-roledescription="circle" transform="translate(321.3094736842105,90)" d="M1.6583123951777,0A1.6583123951777,1.6583123951777,0,1,1,-1.6583123951777,0A1.6583123951777,1.6583123951777,0,1,1,1.6583123951777,0" fill="black" stroke-width="2"/></g><g class="mark-group role-title"><g transform="translate(200,-27.5)"><path class="background" aria-hidden="true" d="M0,0h0v0h0Z" pointer-events="none"/><g><g class="mark-text role-title-text" role="graphics-symbol" aria-roledescription="title" aria-label="Title text 'Figure 1. Coffee quality rating by coffee bean colour'" pointer-events="none"><text text-anchor="middle" transform="translate(0,10)" font-family="sans-serif" font-size="13px" font-weight="bold" fill="#000" opacity="1">Figure 1. Coffee quality rating by coffee bean colour</text></g></g><path class="foreground" aria-hidden="true" d="" pointer-events="none" display="none"/></g></g></g><path class="foreground" aria-hidden="true" d="" display="none"/></g></g></g></svg>